<?xml version="1.0" encoding="utf-8"?>
<!-- Generator: Adobe Illustrator 25.2.1, SVG Export Plug-In . SVG Version: 6.00 Build 0)  -->
<svg version="1.1" id="Layer_1" xmlns="http://www.w3.org/2000/svg" xmlns:xlink="http://www.w3.org/1999/xlink" x="0px" y="0px"
	 viewBox="0 0 200 200" style="enable-background:new 0 0 200 200;" xml:space="preserve">
<style type="text/css">
	.st0{fill:#9AA0A6;}
</style>
<path class="st0" d="M140.57,124.36h-8.54l-3.03-2.92c10.95-12.71,16.97-28.93,16.96-45.7c0-38.78-31.44-70.22-70.22-70.22
	S5.52,36.96,5.52,75.75s31.44,70.22,70.22,70.22c17.39,0,33.38-6.37,45.7-16.96l2.92,3.03v8.54l54.02,53.91l16.1-16.1L140.57,124.36
	z M75.75,124.36c-26.9,0-48.62-21.72-48.62-48.62s21.72-48.62,48.62-48.62s48.62,21.72,48.62,48.62S102.65,124.36,75.75,124.36z"/>
</svg>
