<svg id="Layer_1" data-name="Layer 1" xmlns="http://www.w3.org/2000/svg" viewBox="0 0 480 229.17"><rect x="299.02" y="15.06" width="167.42" height="27.07" rx="12.37"/><path d="M464.08,25.77a11.87,11.87,0,0,1,11.86,11.86V40a11.88,11.88,0,0,1-11.86,11.87H321.39A11.88,11.88,0,0,1,309.52,40V37.63a11.88,11.88,0,0,1,11.87-11.86H464.08m0-1H321.39a12.87,12.87,0,0,0-12.87,12.86V40a12.87,12.87,0,0,0,12.87,12.87H464.08A12.87,12.87,0,0,0,476.94,40V37.63a12.86,12.86,0,0,0-12.86-12.86Z" transform="translate(-10 -10.2)"/><path d="M467.57,14.2A18.46,18.46,0,0,1,486,32.64v184.3a18.45,18.45,0,0,1-18.43,18.43H32.43A18.45,18.45,0,0,1,14,216.94V32.64A18.46,18.46,0,0,1,32.43,14.2H467.57m0-4H32.43A22.44,22.44,0,0,0,10,32.64v184.3a22.43,22.43,0,0,0,22.43,22.43H467.57A22.43,22.43,0,0,0,490,216.94V32.64A22.44,22.44,0,0,0,467.57,10.2Z" transform="translate(-10 -10.2)"/></svg>