<svg id="Layer_1" data-name="Layer 1" xmlns="http://www.w3.org/2000/svg" viewBox="0 0 480.04 229.37"><path d="M467.61,15.2A17.45,17.45,0,0,1,485,32.64v184.3a17.45,17.45,0,0,1-17.43,17.43H32.47A17.45,17.45,0,0,1,15,216.94V32.64A17.45,17.45,0,0,1,32.47,15.2H467.61m0-5H32.47A22.44,22.44,0,0,0,10,32.64v184.3a22.43,22.43,0,0,0,22.43,22.43H467.61A22.43,22.43,0,0,0,490,216.94V32.64A22.44,22.44,0,0,0,467.61,10.2Z" transform="translate(-10 -10)"/><path d="M10.5,54.09V32.43A22,22,0,0,1,32.43,10.5H467.57A22,22,0,0,1,489.5,32.43V54.09Z" transform="translate(-10 -10)"/><path d="M467.57,11A21.45,21.45,0,0,1,489,32.43V53.59H11V32.43A21.45,21.45,0,0,1,32.43,11H467.57m0-1H32.43A22.43,22.43,0,0,0,10,32.43V54.59H490V32.43A22.43,22.43,0,0,0,467.57,10Z" transform="translate(-10 -10)"/></svg>