<svg id="Layer_1" data-name="Layer 1" xmlns="http://www.w3.org/2000/svg" viewBox="0 0 480 229.17"><path d="M467.57,14.2A18.46,18.46,0,0,1,486,32.64v184.3a18.45,18.45,0,0,1-18.43,18.43H32.43A18.45,18.45,0,0,1,14,216.94V32.64A18.46,18.46,0,0,1,32.43,14.2H467.57m0-4H32.43A22.44,22.44,0,0,0,10,32.64v184.3a22.43,22.43,0,0,0,22.43,22.43H467.57A22.43,22.43,0,0,0,490,216.94V32.64A22.44,22.44,0,0,0,467.57,10.2Z" transform="translate(-10 -10.2)"/><path d="M32.43,237.37A20.45,20.45,0,0,1,12,216.94V32.64A20.46,20.46,0,0,1,32.43,12.2H79V237.37Z" transform="translate(-10 -10.2)"/><path d="M77,14.2V235.37H32.43A18.45,18.45,0,0,1,14,216.94V32.64A18.46,18.46,0,0,1,32.43,14.2H77m4-4H32.43A22.44,22.44,0,0,0,10,32.64v184.3a22.43,22.43,0,0,0,22.43,22.43H81V10.2Z" transform="translate(-10 -10.2)"/></svg>